<svg width="800" height="350" xmlns="http://www.w3.org/2000/svg">
  <rect width="800" height="350" fill="#f9f9f9" rx="5" ry="5"/>
  <text x="400" y="30" font-family="Arial" font-size="18" text-anchor="middle" font-weight="bold" fill="#1a5276">Process Optimization Methodology</text>
  
  <!-- Process Flow Diagram with Optimization Points -->
  <!-- Main Flow -->
  <rect x="100" y="80" width="120" height="60" fill="#e1f5fe" stroke="#1a5276" stroke-width="2" rx="5" ry="5"/>
  <rect x="300" y="80" width="120" height="60" fill="#e1f5fe" stroke="#1a5276" stroke-width="2" rx="5" ry="5"/>
  <rect x="500" y="80" width="120" height="60" fill="#e1f5fe" stroke="#1a5276" stroke-width="2" rx="5" ry="5"/>
  <rect x="400" y="200" width="120" height="60" fill="#e1f5fe" stroke="#1a5276" stroke-width="2" rx="5" ry="5"/>
  <rect x="200" y="200" width="120" height="60" fill="#e1f5fe" stroke="#1a5276" stroke-width="2" rx="5" ry="5"/>
  
  <!-- Arrows -->
  <path d="M220,110 H300 M420,110 H500" stroke="#1a5276" stroke-width="2" marker-end="url(#arrowhead)"/>
  <path d="M360,140 L360,180 L320,180 L320,200" stroke="#1a5276" stroke-width="2" marker-end="url(#arrowhead)"/>
  <path d="M560,140 L560,180 L480,180 L480,200" stroke="#1a5276" stroke-width="2" marker-end="url(#arrowhead)"/>
  <path d="M400,230 H320" stroke="#1a5276" stroke-width="2" marker-end="url(#arrowhead)"/>
  <path d="M200,230 L160,230 L160,110 L100,110" stroke="#1a5276" stroke-width="2" marker-end="url(#arrowhead)" stroke-dasharray="5,3"/>
  
  <!-- Labels -->
  <text x="160" y="110" font-family="Arial" font-size="12" text-anchor="middle" fill="#1a5276">Data Collection</text>
  <text x="360" y="110" font-family="Arial" font-size="12" text-anchor="middle" fill="#1a5276">Process Modeling</text>
  <text x="560" y="110" font-family="Arial" font-size="12" text-anchor="middle" fill="#1a5276">Optimization</text>
  <text x="260" y="230" font-family="Arial" font-size="12" text-anchor="middle" fill="#1a5276">Implementation</text>
  <text x="460" y="230" font-family="Arial" font-size="12" text-anchor="middle" fill="#1a5276">Results Validation</text>
  
  <!-- Optimization Metrics -->
  <rect x="50" y="290" width="700" height="40" fill="#e1f5fe" stroke="#1a5276" stroke-width="1" rx="5" ry="5"/>
  
  <!-- Key Performance Indicators -->
  <text x="400" y="310" font-family="Arial" font-size="12" text-anchor="middle" fill="#1a5276">Key Performance Indicators (KPIs):</text>
  <text x="400" y="325" font-family="Arial" font-size="12" text-anchor="middle" fill="#1a5276">Energy Efficiency • Cost Reduction • Process Yield • Environmental Impact • Quality Improvement</text>
  
  <!-- Optimization Points Highlights -->
  <circle cx="360" cy="110" r="10" fill="#e74c3c" fill-opacity="0.6"/>
  <circle cx="560" cy="110" r="10" fill="#e74c3c" fill-opacity="0.6"/>
  <circle cx="260" cy="230" r="10" fill="#e74c3c" fill-opacity="0.6"/>
  
  <!-- Optimization Methods -->
  <g transform="translate(620, 160)">
    <rect x="0" y="0" width="150" height="100" fill="white" stroke="#1a5276" stroke-width="1" rx="5" ry="5"/>
    <text x="75" y="20" font-family="Arial" font-size="12" text-anchor="middle" font-weight="bold" fill="#1a5276">Optimization Methods</text>
    <text x="10" y="40" font-family="Arial" font-size="10" fill="#1a5276">• First-Principles Modeling</text>
    <text x="10" y="55" font-family="Arial" font-size="10" fill="#1a5276">• Statistical Process Control</text>
    <text x="10" y="70" font-family="Arial" font-size="10" fill="#1a5276">• Machine Learning</text>
    <text x="10" y="85" font-family="Arial" font-size="10" fill="#1a5276">• Multi-objective Optimization</text>
  </g>
  
  <!-- Markers -->
  <defs>
    <marker id="arrowhead" markerWidth="10" markerHeight="7" refX="10" refY="3.5" orient="auto">
      <polygon points="0 0, 10 3.5, 0 7" fill="#1a5276"/>
    </marker>
  </defs>
</svg>