<?xml version="1.0" encoding="UTF-8"?>
<svg version="1.1" xmlns="http://www.w3.org/2000/svg" width="1024" height="1024">
<path d="M0 0 C337.92 0 675.84 0 1024 0 C1024 337.92 1024 675.84 1024 1024 C686.08 1024 348.16 1024 0 1024 C0 686.08 0 348.16 0 0 Z " fill="#FEFEFE" transform="translate(0,0)"/>
<path d="M0 0 C13.42403086 5.03457955 26.37949996 9.03558295 40.8125 10 C42.46777877 36.02466058 31.25057975 58.43942302 15.44140625 78.3046875 C14.90386719 78.86414063 14.36632812 79.42359375 13.8125 80 C13.1525 80 12.4925 80 11.8125 80 C11.8125 80.66 11.8125 81.32 11.8125 82 C-7.5824132 100.73416465 -32.04349023 108.58082942 -58.51904297 108.3515625 C-82.27751381 107.72277739 -103.20877066 98.49207786 -120.1875 82 C-121.05890625 81.21367188 -121.9303125 80.42734375 -122.828125 79.6171875 C-134.65192599 68.57037915 -144.08060641 53.98769307 -150.1875 39 C-150.1875 38.01 -150.1875 37.02 -150.1875 36 C-148.95257813 35.85304688 -147.71765625 35.70609375 -146.4453125 35.5546875 C-120.75193959 32.25706029 -100.9939907 22.50957157 -80.19238281 7.43701172 C-53.15642593 -11.9411717 -30.28038001 -11.44162591 0 0 Z " fill="#338F9A" transform="translate(290.1875,529)"/>
<path d="M0 0 C2.9005773 0.32724462 4.5740588 0.60550413 6.74609375 2.6171875 C7.58333984 3.73480469 7.58333984 3.73480469 8.4375 4.875 C9.12328125 5.77992188 9.8090625 6.68484375 10.515625 7.6171875 C11.34430429 8.74438438 12.17237101 9.87203173 13 11 C14.05677295 12.41965711 15.1141048 13.83889828 16.171875 15.2578125 C45.75462896 55.08058971 45.75462896 55.08058971 58.80664062 75.17285156 C59.68986878 76.52515916 60.5803058 77.87276455 61.47460938 79.21777344 C75.38847705 100.17169243 87.67143672 121.83778196 95 146 C64.55790854 145.47677655 39.83009754 128.84872911 19 108 C17.3524459 106.20991556 15.70631955 104.41851445 14.0625 102.625 C11.36956125 99.90670401 9.62476506 98.41255214 5.75 98.125 C1.18824922 99.18940852 0.05404174 100.49902532 -3 104 C-4.35308855 105.1105798 -5.73084595 106.19142993 -7.125 107.25 C-14.23449103 112.69631521 -21.14173666 118.36966052 -27.89672852 124.24902344 C-47.32510138 141.12225926 -68.50670446 155.89978838 -90 170 C-93.93197339 164.10203991 -92.62557194 155.81991444 -91.3125 149.046875 C-86.26074455 126.34746775 -74.64973693 106.22517041 -62 87 C-61.60455994 86.39812866 -61.20911987 85.79625732 -60.80169678 85.17614746 C-50.34292726 69.26363178 -39.88401805 53.35165486 -28.52734375 38.06005859 C-26.86228738 35.81425526 -25.21166248 33.558279 -23.5625 31.30078125 C-15.84833271 20.75865063 -7.97482178 10.34607277 0 0 Z " fill="#143852" transform="translate(235,379)"/>
<path d="M0 0 C1.7046263 0.61388628 3.40970313 1.22652302 5.11523438 1.83789062 C9.22796812 3.3151417 13.3343192 4.80892949 17.4375 6.3125 C17.4375 6.6425 17.4375 6.9725 17.4375 7.3125 C16.76807373 7.3218457 16.09864746 7.33119141 15.40893555 7.34082031 C12.31360201 7.39520392 9.21967188 7.47871253 6.125 7.5625 C5.07248047 7.57667969 4.01996094 7.59085938 2.93554688 7.60546875 C-13.47103519 8.11028666 -23.94396535 15.4897554 -35.5625 26.3125 C-60.08292287 48.77987008 -79.18304915 62.62619364 -113.04589844 61.56542969 C-121.14988043 60.98255512 -128.85284395 58.77396373 -136.5625 56.3125 C-136.5625 58.9525 -136.5625 61.5925 -136.5625 64.3125 C-140.27606731 60.97113534 -142.62161716 57.25955023 -145.125 53 C-145.51107422 52.36126953 -145.89714844 51.72253906 -146.29492188 51.06445312 C-152.5625 40.52595294 -152.5625 40.52595294 -152.5625 35.3125 C-151.32757813 35.16554688 -150.09265625 35.01859375 -148.8203125 34.8671875 C-123.12693959 31.56956029 -103.3689907 21.82207157 -82.56738281 6.74951172 C-54.44986666 -13.40388576 -31.3243612 -11.49333352 0 0 Z " fill="#236782" transform="translate(292.5625,529.6875)"/>
<path d="M0 0 C7.92 0 15.84 0 24 0 C27.38435938 7.86044759 30.48494084 15.80412153 33.5 23.8125 C33.86730225 24.78316406 34.23460449 25.75382812 34.61303711 26.75390625 C37.61444715 34.77003692 40.33318972 42.86803806 43 51 C43.31280411 50.10797127 43.31280411 50.10797127 43.63192749 49.19792175 C45.80069705 43.01583265 47.97529945 36.83581809 50.15332031 30.65698242 C50.96569596 28.34989401 51.77657642 26.04227855 52.5859375 23.73413086 C53.74868568 20.4190161 54.91677515 17.10582596 56.0859375 13.79296875 C56.44746918 12.7585112 56.80900085 11.72405365 57.18148804 10.6582489 C57.52168976 9.6974794 57.86189148 8.7367099 58.21240234 7.74682617 C58.50996429 6.90077316 58.80752625 6.05472015 59.11410522 5.18302917 C60 3 60 3 62 0 C69.92 0 77.84 0 86 0 C86 25.74 86 51.48 86 78 C80.39 78 74.78 78 69 78 C68.67 60.84 68.34 43.68 68 26 C66.35 30.516875 64.7 35.03375 63 39.6875 C58.43366189 52.16400865 53.77585366 64.60193864 49 77 C44.71 77 40.42 77 36 77 C35.49549316 75.63270752 34.99098633 74.26541504 34.47119141 72.85668945 C32.59703652 67.7779869 30.72199176 62.69961326 28.84667969 57.62133789 C28.03556478 55.42448731 27.22469037 53.22754792 26.4140625 51.03051758 C25.24803048 47.87037075 24.0811305 44.7105456 22.9140625 41.55078125 C22.55253082 40.57039383 22.19099915 39.59000641 21.81851196 38.57991028 C21.47831024 37.65933334 21.13810852 36.73875641 20.78759766 35.7902832 C20.34125473 34.5811602 20.34125473 34.5811602 19.88589478 33.34761047 C18.95687579 30.88572136 17.97725684 28.4431421 17 26 C16.67 43.16 16.34 60.32 16 78 C10.72 78 5.44 78 0 78 C0 52.26 0 26.52 0 0 Z " fill="#212122" transform="translate(501,416)"/>
<path d="M0 0 C47.67450271 0 47.67450271 0 55.30078125 7.16015625 C61.49757826 13.92930397 62.36219511 18.33147104 62.27734375 27.4765625 C61.78822118 33.69048591 59.69369018 37.76210746 55 41.8125 C54.01 42.534375 53.02 43.25625 52 44 C50.6655237 44.99847423 49.33195418 45.99816377 48 47 C48.556875 47.92039062 49.11375 48.84078125 49.6875 49.7890625 C53.69762722 56.43312825 57.67857129 63.09372935 61.5625 69.8125 C62.22378906 70.95332031 62.88507813 72.09414063 63.56640625 73.26953125 C65 76 65 76 65 78 C58.4 78 51.8 78 45 78 C43.92878906 76.06253906 42.85757813 74.12507813 41.75390625 72.12890625 C40.71842549 70.25880684 39.68236174 68.38903158 38.64624023 66.51928711 C37.92492574 65.21689115 37.20422045 63.91415759 36.48413086 62.61108398 C35.45064658 60.74113893 34.41499737 58.87240788 33.37890625 57.00390625 C32.7557251 55.87799072 32.13254395 54.7520752 31.49047852 53.59204102 C30.23488288 51.148047 30.23488288 51.148047 29 50 C25.37 49.67 21.74 49.34 18 49 C18 58.57 18 68.14 18 78 C12.06 78 6.12 78 0 78 C0 52.26 0 26.52 0 0 Z " fill="#212123" transform="translate(383,416)"/>
<path d="M0 0 C4.24875 -0.103125 8.4975 -0.20625 12.875 -0.3125 C14.85282471 -0.38078003 14.85282471 -0.38078003 16.87060547 -0.45043945 C24.54626197 -0.53990605 30.72068881 0.30783667 37 5 C39.92681743 8.72652752 41.19321775 12.40596718 41.5 17.125 C40.57651619 24.28199949 36.42220108 27.81011735 31 32 C31.36351562 32.53367187 31.72703125 33.06734375 32.1015625 33.6171875 C43 49.76923077 43 49.76923077 43 53 C38.38000888 53.96398578 34.57557682 54.28752218 30 53 C25.38418077 48.57010424 22.11297068 41.65101494 20.26171875 35.578125 C18.49505736 32.99225433 18.49505736 32.99225433 11 33 C11 39.6 11 46.2 11 53 C7.37 53 3.74 53 0 53 C0 35.51 0 18.02 0 0 Z " fill="#1E1E20" transform="translate(712,524)"/>
<path d="M0 0 C4.29 0 8.58 0 13 0 C15.8174659 3.552457 17.24019744 5.97701886 19 10 C20.04956442 11.86857735 21.12014261 13.72549997 22.2109375 15.5703125 C23.26694699 17.42112135 24.32140219 19.27281721 25.375 21.125 C27.23125 24.38375 29.0875 27.6425 31 31 C31.33 20.77 31.66 10.54 32 0 C35.96 0 39.92 0 44 0 C44 17.49 44 34.98 44 53 C39.71 53 35.42 53 31 53 C28.10035819 49.90015277 26.86420932 48.14106337 25.1875 44.4375 C24.78853516 43.65697266 24.38957031 42.87644531 23.97851562 42.07226562 C22.61739624 39.39901864 21.31071815 36.69831676 20 34 C17.36 29.05 14.72 24.1 12 19 C11.67 30.22 11.34 41.44 11 53 C7.37 53 3.74 53 0 53 C0 35.51 0 18.02 0 0 Z " fill="#252426" transform="translate(790,524)"/>
<path d="M0 0 C4.29 0 8.58 0 13 0 C13.96421875 1.72347656 14.9284375 3.44695313 15.921875 5.22265625 C16.86846714 6.91399368 17.81506161 8.60532981 18.76171875 10.29663086 C19.73198743 12.03031499 20.70193427 13.76417924 21.671875 15.49804688 C22.290625 16.60341797 22.909375 17.70878906 23.546875 18.84765625 C24.11245117 19.85836182 24.67802734 20.86906738 25.26074219 21.91040039 C27.15880585 25.28210107 29.08031982 28.64055969 31 32 C31.33 21.44 31.66 10.88 32 0 C35.63 0 39.26 0 43 0 C43 17.49 43 34.98 43 53 C38.71 53 34.42 53 30 53 C29.21496094 51.55109375 28.42992187 50.1021875 27.62109375 48.609375 C26.5599925 46.65619748 25.49878907 44.70307547 24.4375 42.75 C23.92380859 41.80125 23.41011719 40.8525 22.88085938 39.875 C19.04824081 32.82869506 15.04600257 25.93600441 11 19 C11 30.22 11 41.44 11 53 C7.37 53 3.74 53 0 53 C0 35.51 0 18.02 0 0 Z " fill="#201F21" transform="translate(429,524)"/>
<path d="M0 0 C12 0 12 0 14.53515625 2.140625 C15.03917969 3.16671875 15.54320312 4.1928125 16.0625 5.25 C16.67222656 6.41402344 17.28195312 7.57804688 17.91015625 8.77734375 C18.23258301 9.43718262 18.55500977 10.09702148 18.88720703 10.77685547 C20.59393832 14.18657357 22.47426366 17.49654477 24.33764648 20.82250977 C26.5859829 24.86647747 28.78824893 28.93590741 31 33 C31.33 22.11 31.66 11.22 32 0 C35.3 0 38.6 0 42 0 C42 17.49 42 34.98 42 53 C38.04 53 34.08 53 30 53 C28.14369756 49.77204551 26.28993647 46.54267229 24.4375 43.3125 C23.92380859 42.41982422 23.41011719 41.52714844 22.88085938 40.60742188 C18.78873916 33.46527417 14.90635558 26.25466036 11 19 C10.67 30.22 10.34 41.44 10 53 C6.7 53 3.4 53 0 53 C0 35.51 0 18.02 0 0 Z " fill="#1D1C1D" transform="translate(564,524)"/>
<path d="M0 0 C4.9774693 2.51539967 7.99232867 6.13707168 10.0625 11.3125 C10.0625 12.3025 10.0625 13.2925 10.0625 14.3125 C6.4325 15.3025 2.8025 16.2925 -0.9375 17.3125 C-1.370625 16.36375 -1.80375 15.415 -2.25 14.4375 C-3.73052201 11.11208063 -3.73052201 11.11208063 -6.9375 9.3125 C-10.25887409 8.95148108 -12.48935071 9.14574678 -15.625 10.3125 C-19.44914852 13.61987169 -20.63485789 17.59817858 -21.1875 22.5546875 C-21.3673172 29.05058388 -20.64582231 34.90075085 -16.8125 40.3125 C-13.1401633 42.86716901 -10.22074837 42.97210355 -5.9375 42.3125 C-2.56928728 41.41452887 -2.56928728 41.41452887 0.0625 40.3125 C0.0625 37.6725 0.0625 35.0325 0.0625 32.3125 C-2.9075 32.3125 -5.8775 32.3125 -8.9375 32.3125 C-8.9375 29.3425 -8.9375 26.3725 -8.9375 23.3125 C-2.3375 23.3125 4.2625 23.3125 11.0625 23.3125 C11.25215377 26.69014333 11.39044997 30.05709913 11.5 33.4375 C11.55865234 34.38882813 11.61730469 35.34015625 11.67773438 36.3203125 C11.84573315 43.23226224 11.84573315 43.23226224 9.64672852 46.26513672 C4.08684079 51.2295104 -2.61033568 53.33420928 -10 53.6875 C-17.55033212 52.96842075 -23.64243 50.97699349 -28.9375 45.3125 C-34.01746065 36.21090384 -35.66007976 26.44380169 -33.18359375 16.19140625 C-30.69336582 8.99415925 -28.1031845 4.33708468 -21.375 0.5 C-14.17559699 -2.84560493 -7.36762574 -2.9470503 0 0 Z " fill="#202021" transform="translate(515.9375,524.6875)"/>
<path d="M0 0 C4.21073465 3.69723042 6.65989353 7.50556345 8 13 C4.37 13.99 0.74 14.98 -3 16 C-3.474375 14.865625 -3.94875 13.73125 -4.4375 12.5625 C-5.79411311 10.17873696 -6.51791579 9.1906751 -9.09375 8.171875 C-13.04763647 7.56561241 -15.33444484 7.66014205 -18.9375 9.5 C-24.18842753 15.86476064 -23.64399517 24.12344373 -23 32 C-22.20049057 35.47232197 -21.09414444 38.06795103 -18.3125 40.4375 C-14.01017447 41.48401161 -9.88728059 41.38713448 -5.5625 40.5 C-2.86467272 37.91008581 -3.23375184 34.62315351 -3 31 C-5.97 31 -8.94 31 -12 31 C-12 28.03 -12 25.06 -12 22 C-5.4 22 1.2 22 8 22 C8.24381198 25.54580879 8.42147929 29.0748596 8.5625 32.625 C8.63791016 33.62402344 8.71332031 34.62304688 8.79101562 35.65234375 C8.88105496 38.6736638 8.82909052 41.08857499 8 44 C2.43993935 49.85502598 -5.13591703 51.92926009 -13 52.3125 C-20.0054616 52.07944159 -25.42237575 49.307341 -30.52734375 44.609375 C-36.74918217 37.80991232 -36.44327073 28.68770714 -36.26953125 20.0234375 C-35.91647124 12.57613234 -33.61028599 7.14901427 -28.1875 2 C-20.23392405 -4.23666011 -8.80620275 -5.26518228 0 0 Z " fill="#1E1E1F" transform="translate(881,526)"/>
<path d="M0 0 C11.55 0 23.1 0 35 0 C35 3.3 35 6.6 35 10 C27.41 10 19.82 10 12 10 C12 13.63 12 17.26 12 21 C18.6 21 25.2 21 32 21 C32 24.3 32 27.6 32 31 C25.4 31 18.8 31 12 31 C12 34.96 12 38.92 12 43 C19.59 43 27.18 43 35 43 C35 46.3 35 49.6 35 53 C23.45 53 11.9 53 0 53 C0 35.51 0 18.02 0 0 Z " fill="#1F1E1F" transform="translate(665,524)"/>
<path d="M0 0 C11.22 0 22.44 0 34 0 C34 3.3 34 6.6 34 10 C26.74 10 19.48 10 12 10 C12 13.63 12 17.26 12 21 C18.27 21 24.54 21 31 21 C31 24.3 31 27.6 31 31 C24.73 31 18.46 31 12 31 C12 34.96 12 38.92 12 43 C19.26 43 26.52 43 34 43 C34 46.3 34 49.6 34 53 C22.78 53 11.56 53 0 53 C0 35.51 0 18.02 0 0 Z " fill="#222223" transform="translate(620,524)"/>
<path d="M0 0 C11.22 0 22.44 0 34 0 C34 3.3 34 6.6 34 10 C26.74 10 19.48 10 12 10 C12 13.63 12 17.26 12 21 C18.27 21 24.54 21 31 21 C31 24.3 31 27.6 31 31 C24.73 31 18.46 31 12 31 C12 34.96 12 38.92 12 43 C19.26 43 26.52 43 34 43 C34 46.3 34 49.6 34 53 C22.78 53 11.56 53 0 53 C0 35.51 0 18.02 0 0 Z " fill="#212123" transform="translate(383,524)"/>
<path d="M0 0 C3.63 0 7.26 0 11 0 C11 17.49 11 34.98 11 53 C7.37 53 3.74 53 0 53 C0 35.51 0 18.02 0 0 Z " fill="#252527" transform="translate(765,524)"/>
<path d="M0 0 C3.63 0 7.26 0 11 0 C11 17.49 11 34.98 11 53 C7.37 53 3.74 53 0 53 C0 35.51 0 18.02 0 0 Z " fill="#1E1D1F" transform="translate(539,524)"/>
<path d="M0 0 C3.39716777 -0.13516583 6.78894608 -0.23419231 10.1875 -0.3125 C11.14720703 -0.35439453 12.10691406 -0.39628906 13.09570312 -0.43945312 C20.24034239 -0.5630628 20.24034239 -0.5630628 24.109375 2.3046875 C26.50795536 5.72415124 27.07330452 7.82164226 27 12 C25.38716797 15.28769605 24.15686778 17.350492 20.93359375 19.16015625 C16.81895693 20.33811486 12.94050177 20.21160045 8.6875 20.125 C5.820625 20.08375 2.95375 20.0425 0 20 C0 13.4 0 6.8 0 0 Z " fill="#FCFCFC" transform="translate(401,431)"/>
<path d="M0 0 C11.22 0 22.44 0 34 0 C34 3.3 34 6.6 34 10 C26.41 10 18.82 10 11 10 C11 9.67 11 9.34 11 9 C18.26 9 25.52 9 33 9 C33 6.69 33 4.38 33 2 C22.77 2 12.54 2 2 2 C2 18.17 2 34.34 2 51 C12.23 51 22.46 51 33 51 C33 48.69 33 46.38 33 44 C25.74 44 18.48 44 11 44 C11 43.67 11 43.34 11 43 C18.59 43 26.18 43 34 43 C34 46.3 34 49.6 34 53 C22.78 53 11.56 53 0 53 C0 35.51 0 18.02 0 0 Z " fill="#050505" transform="translate(620,524)"/>
<path d="M0 0 C0.66 0.66 1.32 1.32 2 2 C5.20813626 2.27917295 5.20813626 2.27917295 8.9765625 2.1953125 C9.66181 2.1924826 10.3470575 2.18965271 11.05307007 2.18673706 C13.24389027 2.17553281 15.43430316 2.15042859 17.625 2.125 C19.1093691 2.11497048 20.5937446 2.10584458 22.078125 2.09765625 C25.71888261 2.07559294 29.35940156 2.04106176 33 2 C33 4.31 33 6.62 33 9 C32.67 9 32.34 9 32 9 C32 7.02 32 5.04 32 3 C22.43 3 12.86 3 3 3 C3 18.51 3 34.02 3 50 C12.57 50 22.14 50 32 50 C32 48.35 32 46.7 32 45 C25.4 45 18.8 45 12 45 C12 44.67 12 44.34 12 44 C19.59 44 27.18 44 35 44 C35 46.97 35 49.94 35 53 C23.45 53 11.9 53 0 53 C0 35.51 0 18.02 0 0 Z " fill="#323233" transform="translate(665,524)"/>
<path d="M0 0 C2.875 1.5625 2.875 1.5625 5 4 C6.14888518 7.94929279 6.43129396 10.02958859 4.75 13.8125 C2.25367098 16.93291127 0.60213649 17.92194527 -3.375 18.4375 C-7 18 -7 18 -9.9375 16 C-12.23092162 12.66411401 -12.75815509 10.90015906 -12.48046875 6.9375 C-10.87278432 0.45447986 -5.98096831 -0.96122705 0 0 Z " fill="#1B1C1D" transform="translate(617,476)"/>
<path d="M0 0 C2.9375 1.375 2.9375 1.375 5 4 C5.70872149 7.46870192 5.70872149 10.53129808 5 14 C2.33367019 17.39351067 0.74717122 17.89326125 -3.5 18.5 C-7.71028182 17.89853117 -9.32252786 17.3265563 -12 14 C-12.72259546 10.85112873 -12.6900808 8.1530521 -12 5 C-8.6691068 0.05412828 -5.84239298 -0.93895602 0 0 Z " fill="#1C1C1E" transform="translate(475,476)"/>
<path d="M0 0 C33 0 33 0 43 1 C42.67 1.66 42.34 2.32 42 3 C22.2 2.505 22.2 2.505 2 2 C2 26.42 2 50.84 2 76 C1.34 76 0.68 76 0 76 C0 50.92 0 25.84 0 0 Z " fill="#070708" transform="translate(383,416)"/>
<path d="M0 0 C7.92 0 15.84 0 24 0 C27 6 27 6 26.6875 8.375 C26.460625 8.91125 26.23375 9.4475 26 10 C24.74335022 7.09399739 24 5.20395416 24 2 C16.74 2 9.48 2 2 2 C2 26.42 2 50.84 2 76 C5.63 76 9.26 76 13 76 C13 76.33 13 76.66 13 77 C8.71 77 4.42 77 0 77 C0 51.59 0 26.18 0 0 Z " fill="#0B0A0B" transform="translate(501,416)"/>
<path d="M0 0 C4.29 0 8.58 0 13 0 C13.33 1.32 13.66 2.64 14 4 C13.67 3.34 13.34 2.68 13 2 C9.37 2 5.74 2 2 2 C2 18.17 2 34.34 2 51 C4.31 51 6.62 51 9 51 C9 39.45 9 27.9 9 16 C11 18 11 18 11.22705078 21.43994141 C11.22673369 22.91051979 11.21540987 24.38112142 11.1953125 25.8515625 C11.1924826 26.62559418 11.18965271 27.39962585 11.18673706 28.19711304 C11.17552754 30.67323157 11.15042203 33.1489905 11.125 35.625 C11.11497118 37.30207812 11.10584516 38.97916189 11.09765625 40.65625 C11.07558574 44.77097223 11.04105102 48.88542511 11 53 C7.37 53 3.74 53 0 53 C0 35.51 0 18.02 0 0 Z " fill="#0C0B0C" transform="translate(790,524)"/>
<path d="M0 0 C12.46562814 -0.41095477 12.46562814 -0.41095477 17 3 C18.125 5.375 18.125 5.375 18 8 C16.35561583 10.84604953 15.87545707 11.65998117 13 13 C8.57751511 13.4278099 4.46212811 13.22536001 0 13 C0 8.71 0 4.42 0 0 Z " fill="#F6F6F6" transform="translate(723,534)"/>
<path d="M0 0 C2.64 0.33 5.28 0.66 8 1 C8 1.33 8 1.66 8 2 C6.02 2 4.04 2 2 2 C2 18.17 2 34.34 2 51 C12.23 51 22.46 51 33 51 C33 48.69 33 46.38 33 44 C25.74 44 18.48 44 11 44 C11 43.67 11 43.34 11 43 C18.59 43 26.18 43 34 43 C34 46.3 34 49.6 34 53 C22.78 53 11.56 53 0 53 C0 35.51 0 18.02 0 0 Z " fill="#030304" transform="translate(383,524)"/>
<path d="M0 0 C3.63 0 7.26 0 11 0 C11 17.49 11 34.98 11 53 C7.37 53 3.74 53 0 53 C0 35.51 0 18.02 0 0 Z M2 2 C2 18.17 2 34.34 2 51 C4.64 51 7.28 51 10 51 C10 34.83 10 18.66 10 2 C7.36 2 4.72 2 2 2 Z " fill="#040404" transform="translate(765,524)"/>
<path d="M0 0 C3.63 0 7.26 0 11 0 C11 17.49 11 34.98 11 53 C6.71 53 2.42 53 -2 53 C-3.485 49.535 -3.485 49.535 -5 46 C-4.34 46 -3.68 46 -3 46 C-2.34 47.32 -1.68 48.64 -1 50 C2.3 50.33 5.6 50.66 9 51 C9 34.83 9 18.66 9 2 C6.36 2 3.72 2 1 2 C1.33 12.89 1.66 23.78 2 35 C1.34 34.67 0.68 34.34 0 34 C0 22.78 0 11.56 0 0 Z " fill="#050506" transform="translate(461,524)"/>
<path d="M0 0 C0.33 0 0.66 0 1 0 C1 25.74 1 51.48 1 78 C-4.61 78 -10.22 78 -16 78 C-16 60.18 -16 42.36 -16 24 C-15.67 24 -15.34 24 -15 24 C-15 41.16 -15 58.32 -15 76 C-10.38 76 -5.76 76 -1 76 C-1.00580078 74.97285889 -1.01160156 73.94571777 -1.01757812 72.88745117 C-1.07413643 57.69208421 -0.78332599 42.50466794 -0.5 27.3125 C-0.45147256 24.65300103 -0.40348788 21.99349261 -0.35546875 19.33398438 C-0.23877211 12.88928917 -0.1201634 6.44463145 0 0 Z " fill="#424242" transform="translate(586,416)"/>
<path d="M0 0 C3.63 0 7.26 0 11 0 C11 17.49 11 34.98 11 53 C6.71 53 2.42 53 -2 53 C-2 52.34 -2 51.68 -2 51 C1.63 51 5.26 51 9 51 C9 34.83 9 18.66 9 2 C6.36 2 3.72 2 1 2 C1 12.89 1 23.78 1 35 C0.67 35 0.34 35 0 35 C0 23.45 0 11.9 0 0 Z " fill="#1D1C1D" transform="translate(823,524)"/>
<path d="M0 0 C11.22 0 22.44 0 34 0 C34 3.3 34 6.6 34 10 C26.41 10 18.82 10 11 10 C11 13.96 11 17.92 11 22 C10.67 22 10.34 22 10 22 C10 17.71 10 13.42 10 9 C17.26 9 24.52 9 32 9 C32 6.69 32 4.38 32 2 C21.77 2 11.54 2 1 2 C1 18.5 1 35 1 52 C0.67 52 0.34 52 0 52 C0 34.84 0 17.68 0 0 Z " fill="#040404" transform="translate(666,524)"/>
<path d="M0 0 C6.6 0 13.2 0 20 0 C20.18965377 3.37764333 20.32794997 6.74459913 20.4375 10.125 C20.49615234 11.07632813 20.55480469 12.02765625 20.61523438 13.0078125 C20.78323315 19.91976224 20.78323315 19.91976224 18.58422852 22.95263672 C13.02434079 27.9170104 6.32716432 30.02170928 -1.0625 30.375 C-5.62704632 29.9402813 -9.88180831 29.07618378 -14 27 C-14.66 26.01 -15.32 25.02 -16 24 C-15.236875 24.309375 -14.47375 24.61875 -13.6875 24.9375 C-6.38422144 27.82484269 2.05917736 28.39152759 9.5625 25.6875 C10.696875 25.130625 11.83125 24.57375 13 24 C13.71542969 23.67 14.43085937 23.34 15.16796875 23 C18.22002427 19.66811849 17.67985075 15.67131907 17.75 11.3125 C17.77964844 10.41982422 17.80929687 9.52714844 17.83984375 8.60742188 C17.91049576 6.40543417 17.95751762 4.20271124 18 2 C12.39 2 6.78 2 1 2 C1 3.98 1 5.96 1 8 C3.64 8 6.28 8 9 8 C9 8.33 9 8.66 9 9 C6.03 9 3.06 9 0 9 C0 6.03 0 3.06 0 0 Z " fill="#0F0F0F" transform="translate(507,548)"/>
<path d="M0 0 C2.46105545 3.69158318 2.25575793 6.46623554 2.1953125 10.73046875 C2.1924826 11.48088943 2.18965271 12.23131012 2.18673706 13.00447083 C2.17555062 15.39897675 2.15044928 17.79310731 2.125 20.1875 C2.11496819 21.81184355 2.10584269 23.43619297 2.09765625 25.06054688 C2.07561637 29.040509 2.0410974 33.02019088 2 37 C-1.63 37 -5.26 37 -9 37 C-8.34 34.69 -7.68 32.38 -7 30 C-6.67 31.32 -6.34 32.64 -6 34 C-4.35 34 -2.7 34 -1 34 C-1.00523682 33.04109863 -1.01047363 32.08219727 -1.01586914 31.09423828 C-1.03394679 27.54216441 -1.04544215 23.99009463 -1.05493164 20.43798828 C-1.05996552 18.89956987 -1.06679308 17.36115625 -1.07543945 15.82275391 C-1.08754639 13.61359474 -1.09323769 11.40449874 -1.09765625 9.1953125 C-1.10281754 8.50567413 -1.10797882 7.81603577 -1.11329651 7.10549927 C-1.11387171 2.22774341 -1.11387171 2.22774341 0 0 Z " fill="#303030" transform="translate(438,540)"/>
<path d="M0 0 C3.3 0 6.6 0 10 0 C10 0.33 10 0.66 10 1 C7.03 1 4.06 1 1 1 C1 10.57 1 20.14 1 30 C-4.94 30 -10.88 30 -17 30 C-17 29.34 -17 28.68 -17 28 C-11.72 28 -6.44 28 -1 28 C-1.01740234 25.21949219 -1.01740234 25.21949219 -1.03515625 22.3828125 C-1.04453326 19.96354267 -1.05363356 17.54427176 -1.0625 15.125 C-1.07087891 13.90167969 -1.07925781 12.67835938 -1.08789062 11.41796875 C-1.09272461 9.66806641 -1.09272461 9.66806641 -1.09765625 7.8828125 C-1.10289307 6.80402832 -1.10812988 5.72524414 -1.11352539 4.61376953 C-1 2 -1 2 0 0 Z " fill="#191919" transform="translate(400,464)"/>
<path d="M0 0 C2 2 2 2 2.22705078 5.43994141 C2.22673369 6.91051979 2.21540987 8.38112142 2.1953125 9.8515625 C2.1924826 10.62559418 2.18965271 11.39962585 2.18673706 12.19711304 C2.17552754 14.67323157 2.15042203 17.1489905 2.125 19.625 C2.11497118 21.30207812 2.10584516 22.97916189 2.09765625 24.65625 C2.07558574 28.77097223 2.04105102 32.88542511 2 37 C-1.63 37 -5.26 37 -9 37 C-8.67 35.35 -8.34 33.7 -8 32 C-7.67 32.99 -7.34 33.98 -7 35 C-4.69 35 -2.38 35 0 35 C0 23.45 0 11.9 0 0 Z " fill="#020202" transform="translate(799,540)"/>
<path d="M0 0 C6.6 0 13.2 0 20 0 C20 6.93 20 13.86 20 21 C19.67 21 19.34 21 19 21 C19 14.73 19 8.46 19 2 C13.39 2 7.78 2 2 2 C2 3.98 2 5.96 2 8 C4.64 8 7.28 8 10 8 C10 10.97 10 13.94 10 17 C9.67 17 9.34 17 9 17 C9 14.36 9 11.72 9 9 C6.03 9 3.06 9 0 9 C0 6.03 0 3.06 0 0 Z " fill="#050506" transform="translate(869,548)"/>
<path d="M0 0 C0.66 0.33 1.32 0.66 2 1 C1.360625 1.20625 0.72125 1.4125 0.0625 1.625 C-2.35423882 2.88634445 -2.35423882 2.88634445 -2.62890625 6.0859375 C-2.75136719 7.04757812 -2.87382812 8.00921875 -3 9 C-3.84304687 9.19335938 -4.68609375 9.38671875 -5.5546875 9.5859375 C-6.65039062 9.84632813 -7.74609375 10.10671875 -8.875 10.375 C-9.96554688 10.63023437 -11.05609375 10.88546875 -12.1796875 11.1484375 C-15.10408455 11.78906215 -15.10408455 11.78906215 -17 14 C-17.33 14.66 -17.66 15.32 -18 16 C-20 15.33333333 -22 14.66666667 -24 14 C-22.85402344 13.40832031 -21.70804688 12.81664062 -20.52734375 12.20703125 C-18.99725171 11.40913049 -17.46731188 10.61093779 -15.9375 9.8125 C-15.18533203 9.42513672 -14.43316406 9.03777344 -13.65820312 8.63867188 C-8.79711589 6.09238809 -4.39592839 3.28672999 0 0 Z " fill="#165371" transform="translate(202,542)"/>
<path d="M0 0 C2.63884562 2.40111178 4.36413529 5.00555028 6.1875 8.0625 C6.71730469 8.94035156 7.24710938 9.81820312 7.79296875 10.72265625 C9 13 9 13 9 15 C4.52714071 15.59726608 0.44483566 15.88475402 -4 15 C-7.00533138 12.09975014 -8.73632976 8.97339611 -10 5 C-9.67 4.34 -9.34 3.68 -9 3 C-8.5875 3.721875 -8.175 4.44375 -7.75 5.1875 C-4.73110174 10.56707804 -4.73110174 10.56707804 0.24609375 13.6640625 C2.68042512 13.67737862 2.68042512 13.67737862 6 13 C5.566875 12.22914063 5.13375 11.45828125 4.6875 10.6640625 C4.130625 9.66117188 3.57375 8.65828125 3 7.625 C2.1646875 6.12839844 2.1646875 6.12839844 1.3125 4.6015625 C0 2 0 2 0 0 Z " fill="#090809" transform="translate(746,562)"/>
<path d="M0 0 C6.6 0 13.2 0 20 0 C20 3.3 20 6.6 20 10 C19.01 9.67 18.02 9.34 17 9 C17 7.02 17 5.04 17 3 C11.39 3 5.78 3 0 3 C0 2.01 0 1.02 0 0 Z " fill="#29292A" transform="translate(677,545)"/>
<path d="M0 0 C3.12498063 -0.02895976 6.2499269 -0.04678483 9.375 -0.0625 C10.70917969 -0.07506836 10.70917969 -0.07506836 12.0703125 -0.08789062 C13.34648437 -0.09272461 13.34648437 -0.09272461 14.6484375 -0.09765625 C15.43395996 -0.10289307 16.21948242 -0.10812988 17.02880859 -0.11352539 C19 0 19 0 21 1 C21 1.66 21 2.32 21 3 C14.07 3 7.14 3 0 3 C0 2.01 0 1.02 0 0 Z " fill="#2D2D2E" transform="translate(401,428)"/>
<path d="M0 0 C0.66 0 1.32 0 2 0 C2 3.63 2 7.26 2 11 C7.94 11 13.88 11 20 11 C20 11.33 20 11.66 20 12 C16.85463232 12.19594676 13.70869386 12.3803401 10.5625 12.5625 C9.66466797 12.61857422 8.76683594 12.67464844 7.84179688 12.73242188 C6.98779297 12.78076172 6.13378906 12.82910156 5.25390625 12.87890625 C4.46314697 12.9260376 3.6723877 12.97316895 2.85766602 13.02172852 C1 13 1 13 0 12 C-0.07244053 9.98035801 -0.08377188 7.95832876 -0.0625 5.9375 C-0.05347656 4.83277344 -0.04445313 3.72804688 -0.03515625 2.58984375 C-0.02355469 1.73519531 -0.01195312 0.88054688 0 0 Z " fill="#2B2B2C" transform="translate(393,534)"/>
<path d="M0 0 C0.33 0.66 0.66 1.32 1 2 C1.66 2.33 2.32 2.66 3 3 C2.071875 3.309375 2.071875 3.309375 1.125 3.625 C-1.8585792 5.55555125 -2.09287605 7.65061928 -3 11 C-3.33 11.66 -3.66 12.32 -4 13 C-5.32 13 -6.64 13 -8 13 C-6.40956621 7.91061189 -3.2553049 4.12543357 0 0 Z " fill="#0F2B42" transform="translate(194,435)"/>
<path d="M0 0 C1 3 1 3 -0.14453125 5.6640625 C-0.69496094 6.64117188 -1.24539063 7.61828125 -1.8125 8.625 C-2.62654297 10.09839844 -2.62654297 10.09839844 -3.45703125 11.6015625 C-5 14 -5 14 -7 15 C-7.66 14.34 -8.32 13.68 -9 13 C-9 12.01 -9 11.02 -9 10 C-8.401875 9.7525 -7.80375 9.505 -7.1875 9.25 C-3.44310469 7.11034553 -1.77639057 3.82607199 0 0 Z " fill="#22818E" transform="translate(322,578)"/>
<path d="M0 0 C1.79133978 -0.05391993 3.58313899 -0.09275571 5.375 -0.125 C6.37273437 -0.14820313 7.37046875 -0.17140625 8.3984375 -0.1953125 C11 0 11 0 13 2 C10.35541621 3.32229189 8.32238699 3.09677194 5.375 3.0625 C4.37210937 3.05347656 3.36921875 3.04445313 2.3359375 3.03515625 C1.56507813 3.02355469 0.79421875 3.01195312 0 3 C0 2.01 0 1.02 0 0 Z " fill="#353535" transform="translate(500,523)"/>
<path d="M0 0 C0.33 0 0.66 0 1 0 C1 5.61 1 11.22 1 17 C0.01 16.67 -0.98 16.34 -2 16 C-2.05384521 13.70858714 -2.09272087 11.41681812 -2.125 9.125 C-2.14820313 7.84882812 -2.17140625 6.57265625 -2.1953125 5.2578125 C-2 2 -2 2 0 0 Z " fill="#21445E" transform="translate(145,530)"/>
<path d="M0 0 C4.47238653 1.41807378 8.71146306 3.11304374 13 5 C13.33 4.34 13.66 3.68 14 3 C14.12375 3.928125 14.12375 3.928125 14.25 4.875 C14.81258459 7.18437567 14.81258459 7.18437567 17.0625 8.25 C18.0215625 8.62125 18.0215625 8.62125 19 9 C14.44684052 8.38188466 10.71540233 6.53234107 6.6875 4.4375 C6.04232422 4.10814453 5.39714844 3.77878906 4.73242188 3.43945312 C3.15214772 2.63175745 1.57567895 1.81662387 0 1 C0 0.67 0 0.34 0 0 Z " fill="#071728" transform="translate(282,509)"/>
<path d="M0 0 C0 3 0 3 -1.57421875 4.97265625 C-2.62029297 6.00712891 -2.62029297 6.00712891 -3.6875 7.0625 C-4.37199219 7.75472656 -5.05648437 8.44695313 -5.76171875 9.16015625 C-8.09475633 11.07788871 -10.15419589 12.03810824 -13 13 C-9.0580583 8.11950075 -4.88049925 3.9419417 0 0 Z " fill="#3898A0" transform="translate(259,553)"/>
<path d="M0 0 C4.62 0 9.24 0 14 0 C14.33 0.99 14.66 1.98 15 3 C10.05 3 5.1 3 0 3 C0 2.01 0 1.02 0 0 Z " fill="#30768F" transform="translate(242,520)"/>
<path d="M0 0 C0.66 0.33 1.32 0.66 2 1 C2.625 3.0625 2.625 3.0625 3 5 C0.70774565 4.88628503 -1.58382388 4.75869036 -3.875 4.625 C-5.15117187 4.55539062 -6.42734375 4.48578125 -7.7421875 4.4140625 C-11 4 -11 4 -13 2 C-8.71 2.33 -4.42 2.66 0 3 C0 2.01 0 1.02 0 0 Z " fill="#0F1A2E" transform="translate(327,520)"/>
<path d="M0 0 C0 4.74373374 -1.30817789 7.23899568 -4.5 10.75 C-7 13 -7 13 -9 14 C-7.65070536 10.16336928 -5.92248975 7.34827431 -3.375 4.1875 C-2.42753906 3.00220703 -2.42753906 3.00220703 -1.4609375 1.79296875 C-0.97882813 1.20128906 -0.49671875 0.60960937 0 0 Z " fill="#0F1D2E" transform="translate(211,411)"/>
<path d="M0 0 C2.97 0.495 2.97 0.495 6 1 C5.67 3.97 5.34 6.94 5 10 C1.32769295 6.92000054 0.43197635 4.7517398 0 0 Z " fill="#24818E" transform="translate(151,584)"/>
<path d="M0 0 C1.77007714 -0.08114106 3.54122098 -0.13925505 5.3125 -0.1875 C6.29863281 -0.22230469 7.28476562 -0.25710938 8.30078125 -0.29296875 C11 0 11 0 12.85546875 1.51171875 C13.23316406 2.00285156 13.61085938 2.49398437 14 3 C12.41590006 2.88512252 10.83271037 2.75765492 9.25 2.625 C8.36828125 2.55539062 7.4865625 2.48578125 6.578125 2.4140625 C4.00933618 2.00149945 2.24158985 1.28839043 0 0 Z " fill="#185A78" transform="translate(253,521)"/>
<path d="M0 0 C2 1 2 1 3 3.8125 C3.33 4.864375 3.66 5.91625 4 7 C4.63815344 8.34721283 5.29325371 9.68747118 6 11 C2.30428266 8.37409557 0.17217838 6.45427785 -1 2 C-0.67 1.34 -0.34 0.68 0 0 Z " fill="#1D7785" transform="translate(158,593)"/>
<path d="M0 0 C3.9492568 0.55105909 7.34920174 1.38935371 11 3 C11 3.33 11 3.66 11 4 C7.7 4 4.4 4 1 4 C1.33 3.34 1.66 2.68 2 2 C1.34 1.34 0.68 0.68 0 0 Z " fill="#104F6F" transform="translate(296,532)"/>
<path d="M0 0 C0.33 0.66 0.66 1.32 1 2 C1.66 2.33 2.32 2.66 3 3 C1.02 4.32 -0.96 5.64 -3 7 C-3 3.48283697 -2.17554415 2.62878252 0 0 Z " fill="#0D2236" transform="translate(194,435)"/>
<path d="M0 0 C3.83206182 0.41427695 6.08025204 1.51280729 9 4 C1.25 3.25 1.25 3.25 -1 1 C-0.67 0.67 -0.34 0.34 0 0 Z " fill="#1C7685" transform="translate(204,630)"/>
<path d="M0 0 C3.96 0 7.92 0 12 0 C11.67 0.99 11.34 1.98 11 3 C7.37 2.34 3.74 1.68 0 1 C0 0.67 0 0.34 0 0 Z " fill="#2A2A2C" transform="translate(402,463)"/>
</svg>
