<svg width="50" height="50" viewBox="0 0 50 50" fill="none" xmlns="http://www.w3.org/2000/svg">
  <path d="M5 35H45V45H5V35Z" stroke="#1a5276" stroke-width="2" fill="none"/>
  <path d="M5 35C5 25 15 25 15 15C15 10.029 11.971 5 7 5" stroke="#1a5276" stroke-width="2" fill="none"/>
  <path d="M15 35C15 25 25 25 25 15C25 10.029 21.971 5 17 5" stroke="#1a5276" stroke-width="2" fill="none"/>
  <path d="M25 35C25 25 35 25 35 15C35 10.029 31.971 5 27 5" stroke="#1a5276" stroke-width="2" fill="none"/>
  <path d="M35 35C35 25 45 25 45 15C45 10.029 41.971 5 37 5" stroke="#1a5276" stroke-width="2" fill="none"/>
  <rect x="10" y="38" width="2" height="4" rx="1" fill="#1a5276"/>
  <rect x="20" y="38" width="2" height="4" rx="1" fill="#1a5276"/>
  <rect x="30" y="38" width="2" height="4" rx="1" fill="#1a5276"/>
  <rect x="40" y="38" width="2" height="4" rx="1" fill="#1a5276"/>
  <path d="M7 12L9 16L5 16L7 12Z" fill="#27ae60"/>
  <path d="M17 10L19 14L15 14L17 10Z" fill="#27ae60"/>
  <path d="M27 8L29 12L25 12L27 8Z" fill="#27ae60"/>
  <path d="M37 10L39 14L35 14L37 10Z" fill="#27ae60"/>
</svg>