<svg width="50" height="50" viewBox="0 0 50 50" fill="none" xmlns="http://www.w3.org/2000/svg">
  <path d="M5 5V45H45" stroke="#1a5276" stroke-width="2" fill="none"/>
  <path d="M10 40C10 38.343 11.343 37 13 37C14.657 37 16 38.343 16 40" stroke="#27ae60" stroke-width="2" fill="none"/>
  <path d="M19 40C19 38.343 20.343 37 22 37C23.657 37 25 38.343 25 40" stroke="#27ae60" stroke-width="2" fill="none"/>
  <path d="M28 40C28 38.343 29.343 37 31 37C32.657 37 34 38.343 34 40" stroke="#27ae60" stroke-width="2" fill="none"/>
  <path d="M37 40C37 38.343 38.343 37 40 37C41.657 37 43 38.343 43 40" stroke="#27ae60" stroke-width="2" fill="none"/>
  <path fill-rule="evenodd" clip-rule="evenodd" d="M13 10V35H10V10H13Z" fill="#e1f5fe"/>
  <path fill-rule="evenodd" clip-rule="evenodd" d="M22 15V35H19V15H22Z" fill="#e1f5fe"/>
  <path fill-rule="evenodd" clip-rule="evenodd" d="M31 20V35H28V20H31Z" fill="#e1f5fe"/>
  <path fill-rule="evenodd" clip-rule="evenodd" d="M40 25V35H37V25H40Z" fill="#e1f5fe"/>
  <path d="M10 30L15 20L20 25L25 10L30 15L35 5L40 10" stroke="#1a5276" stroke-width="2" fill="none"/>
</svg>