<svg width="60" height="60" viewBox="0 0 60 60" fill="none" xmlns="http://www.w3.org/2000/svg">
  <path d="M30 5C16.193 5 5 16.193 5 30C5 43.807 16.193 55 30 55C43.807 55 55 43.807 55 30C55 16.193 43.807 5 30 5Z" stroke="#1a5276" stroke-width="2" fill="none"/>
  <path d="M30 15C21.716 15 15 21.716 15 30C15 38.284 21.716 45 30 45C38.284 45 45 38.284 45 30C45 21.716 38.284 15 30 15Z" fill="#e1f5fe"/>
  <path d="M30 20L33.09 26.5H40.27L34.59 30.5L37.68 37L30 33L22.32 37L25.41 30.5L19.73 26.5H26.91L30 20Z" fill="#27ae60"/>
  <path d="M20 15C16.686 15 14 12.314 14 9C14 5.686 16.686 3 20 3C23.314 3 26 5.686 26 9C26 12.314 23.314 15 20 15Z" fill="#e1f5fe"/>
  <path d="M42 54C38.686 54 36 51.314 36 48C36 44.686 38.686 42 42 42C45.314 42 48 44.686 48 48C48 51.314 45.314 54 42 54Z" fill="#e1f5fe"/>
  <path d="M10 42C8.343 42 7 40.657 7 39C7 37.343 8.343 36 10 36C11.657 36 13 37.343 13 39C13 40.657 11.657 42 10 42Z" fill="#e1f5fe"/>
  <path d="M48 20C46.343 20 45 18.657 45 17C45 15.343 46.343 14 48 14C49.657 14 51 15.343 51 17C51 18.657 49.657 20 48 20Z" fill="#e1f5fe"/>
</svg>