<svg width="60" height="60" viewBox="0 0 60 60" fill="none" xmlns="http://www.w3.org/2000/svg">
  <path d="M5 5V55H55" stroke="#1a5276" stroke-width="2" fill="none"/>
  <path d="M10 45L20 30L30 40L40 20L50 25" stroke="#1a5276" stroke-width="2" fill="none"/>
  <circle cx="20" cy="30" r="3" fill="#27ae60"/>
  <circle cx="30" cy="40" r="3" fill="#27ae60"/>
  <circle cx="40" cy="20" r="3" fill="#27ae60"/>
  <rect x="50" y="15" width="2" height="20" rx="1" fill="#e1f5fe"/>
  <rect x="45" y="20" width="2" height="10" rx="1" fill="#e1f5fe"/>
  <rect x="40" y="25" width="2" height="5" rx="1" fill="#e1f5fe"/>
  <rect x="55" y="25" width="2" height="5" rx="1" fill="#e1f5fe"/>
  <rect x="35" y="20" width="2" height="10" rx="1" fill="#e1f5fe"/>
  <path d="M10 20L15 15L20 20L25 15L30 20" stroke="#1a5276" stroke-width="2" fill="none" stroke-dasharray="2 2"/>
</svg>