<svg width="24" height="24" viewBox="0 0 24 24" fill="none" xmlns="http://www.w3.org/2000/svg">
  <path d="M22 16.92V19.92C22 20.4704 21.7893 20.9996 21.4142 21.3746C21.0391 21.7497 20.5099 21.9605 19.96 21.96C18.44 21.96 16.96 21.73 15.56 21.27C14.2341 20.8327 13.0024 20.1638 11.92 19.29C9.36209 17.4075 7.2721 14.983 5.83 12.14C5.27 10.71 4.97 9.2 4.97 7.65C4.96891 7.10087 5.17905 6.57229 5.5532 6.19703C5.92734 5.82178 6.45532 5.61038 7.004 5.61H10.004C10.456 5.60553 10.894 5.75894 11.242 6.04271C11.5899 6.32647 11.8289 6.72247 11.914 7.16C12.074 8.01 12.333 8.83 12.684 9.61C12.8251 9.91305 12.8684 10.2512 12.8089 10.5798C12.7494 10.9084 12.5899 11.2108 12.354 11.45L11.03 12.77C12.3336 14.8639 14.1361 16.6664 16.23 17.97L17.55 16.65C17.7892 16.4141 18.0916 16.2546 18.4202 16.1951C18.7488 16.1356 19.087 16.1789 19.39 16.32C20.1684 16.6707 20.9867 16.9293 21.83 17.09C22.2748 17.1764 22.6752 17.4227 22.9586 17.7786C23.242 18.1345 23.3893 18.5812 23.38 19.04L22 16.92Z" stroke="#1a5276" stroke-width="2" stroke-linecap="round" stroke-linejoin="round" fill="none"/>
</svg>