<svg width="24" height="24" viewBox="0 0 24 24" fill="none" xmlns="http://www.w3.org/2000/svg">
  <path d="M12 2C6.48 2 2 6.48 2 12C2 17.52 6.48 22 12 22C17.52 22 22 17.52 22 12C22 6.48 17.52 2 12 2Z" stroke="#1a5276" stroke-width="2" fill="none"/>
  <path d="M8 7H10V17H8V7Z" stroke="#1a5276" stroke-width="1.5" fill="none"/>
  <path d="M12 7H16C16.5304 7 17.0391 7.21071 17.4142 7.58579C17.7893 7.96086 18 8.46957 18 9V15C18 15.5304 17.7893 16.0391 17.4142 16.4142C17.0391 16.7893 16.5304 17 16 17H12V7Z" stroke="#1a5276" stroke-width="1.5" fill="none"/>
  <path d="M12 12H16" stroke="#1a5276" stroke-width="1.5" fill="none"/>
</svg>