<svg width="1920" height="1080" xmlns="http://www.w3.org/2000/svg">
  <defs>
    <linearGradient id="grad1" x1="0%" y1="0%" x2="100%" y2="100%">
      <stop offset="0%" style="stop-color:#1a5276;stop-opacity:1" />
      <stop offset="100%" style="stop-color:#2980b9;stop-opacity:1" />
    </linearGradient>
    
    <!-- Water Pattern -->
    <pattern id="waterPattern" patternUnits="userSpaceOnUse" width="200" height="200" patternTransform="rotate(45)">
      <path d="M-40,40 C-30,10 30,10 40,40 C50,70 10,90 0,60 C-10,30 -50,70 -40,40 Z" fill="#2980b9" fill-opacity="0.1" transform="translate(0,0)">
        <animateTransform attributeName="transform" type="translate" from="0,0" to="200,0" dur="20s" repeatCount="indefinite" />
      </path>
      <path d="M-40,40 C-30,10 30,10 40,40 C50,70 10,90 0,60 C-10,30 -50,70 -40,40 Z" fill="#2980b9" fill-opacity="0.1" transform="translate(100,100)">
        <animateTransform attributeName="transform" type="translate" from="100,100" to="300,100" dur="15s" repeatCount="indefinite" />
      </path>
    </pattern>
  </defs>
  
  <!-- Background -->
  <rect width="1920" height="1080" fill="url(#grad1)" />
  
  <!-- Water Pattern Overlay -->
  <rect width="1920" height="1080" fill="url(#waterPattern)" />
  
  <!-- Bottom Wave Shape -->
  <path d="M0,980 C400,920 800,1020 1200,950 C1600,880 1920,950 1920,950 L1920,1080 L0,1080 Z" fill="white" fill-opacity="0.2" />
  
  <!-- Environmental Engineering Abstract Elements -->
  <!-- Circular Rings -->
  <circle cx="1700" cy="300" r="150" fill="none" stroke="white" stroke-width="2" stroke-opacity="0.1" />
  <circle cx="1700" cy="300" r="100" fill="none" stroke="white" stroke-width="2" stroke-opacity="0.15" />
  <circle cx="1700" cy="300" r="50" fill="none" stroke="white" stroke-width="2" stroke-opacity="0.2" />
  
  <!-- Grid Pattern -->
  <path d="M100,100 H1820 M100,300 H1820 M100,500 H1820 M100,700 H1820 M100,900 H1820 M300,100 V980 M600,100 V980 M900,100 V980 M1200,100 V980 M1500,100 V980" stroke="white" stroke-width="1" stroke-opacity="0.05" />
  
  <!-- Molecular Structure -->
  <g transform="translate(250, 250)">
    <circle cx="0" cy="0" r="10" fill="white" fill-opacity="0.5" />
    <circle cx="80" cy="0" r="10" fill="white" fill-opacity="0.5" />
    <circle cx="40" cy="70" r="10" fill="white" fill-opacity="0.5" />
    <circle cx="-40" cy="70" r="10" fill="white" fill-opacity="0.5" />
    <circle cx="-80" cy="0" r="10" fill="white" fill-opacity="0.5" />
    <circle cx="-40" cy="-70" r="10" fill="white" fill-opacity="0.5" />
    <circle cx="40" cy="-70" r="10" fill="white" fill-opacity="0.5" />
    
    <line x1="0" y1="0" x2="80" y2="0" stroke="white" stroke-width="2" stroke-opacity="0.5" />
    <line x1="0" y1="0" x2="40" y2="70" stroke="white" stroke-width="2" stroke-opacity="0.5" />
    <line x1="0" y1="0" x2="-40" y2="70" stroke="white" stroke-width="2" stroke-opacity="0.5" />
    <line x1="0" y1="0" x2="-80" y2="0" stroke="white" stroke-width="2" stroke-opacity="0.5" />
    <line x1="0" y1="0" x2="-40" y2="-70" stroke="white" stroke-width="2" stroke-opacity="0.5" />
    <line x1="0" y1="0" x2="40" y2="-70" stroke="white" stroke-width="2" stroke-opacity="0.5" />
  </g>
</svg>