<svg width="64" height="64" xmlns="http://www.w3.org/2000/svg">
  <defs>
    <linearGradient id="logo-gradient-small" x1="0%" y1="0%" x2="100%" y2="0%">
      <stop offset="0%" style="stop-color:#1a5276;stop-opacity:1" />
      <stop offset="100%" style="stop-color:#2980b9;stop-opacity:1" />
    </linearGradient>
  </defs>
  <g>
    <path d="M32,8 C18.8,8 8,18.8 8,32 C8,45.2 18.8,56 32,56 C45.2,56 56,45.2 56,32 C56,18.8 45.2,8 32,8 Z M32,48 C23.2,48 16,40.8 16,32 C16,23.2 23.2,16 32,16 C40.8,16 48,23.2 48,32 C48,40.8 40.8,48 32,48 Z" fill="url(#logo-gradient-small)"/>
    <path d="M32,20 L32,32 L42,38" stroke="#1a5276" stroke-width="3" fill="none" stroke-linecap="round"/>
    <circle cx="32" cy="32" r="3" fill="#1a5276"/>
  </g>
</svg>