<svg width="32" height="32" viewBox="0 0 32 32" fill="none" xmlns="http://www.w3.org/2000/svg">
  <path d="M16 2C8.268 2 2 8.268 2 16C2 23.732 8.268 30 16 30C23.732 30 30 23.732 30 16C30 8.268 23.732 2 16 2Z" fill="#1a5276"/>
  <path d="M16 6C10.477 6 6 10.477 6 16C6 21.523 10.477 26 16 26C21.523 26 26 21.523 26 16C26 10.477 21.523 6 16 6Z" fill="#2980b9"/>
  <path d="M20 12C20 14.209 18.209 16 16 16C13.791 16 12 14.209 12 12C12 9.791 13.791 8 16 8C18.209 8 20 9.791 20 12Z" fill="#1a5276"/>
  <path d="M10 19L22 19L16 28L10 19Z" fill="#27ae60"/>
  <path d="M12 16.5L20 16.5L16 23L12 16.5Z" fill="#2980b9"/>
</svg>