<svg width="40" height="40" xmlns="http://www.w3.org/2000/svg">
  <defs>
    <linearGradient id="logo-gradient-small" x1="0%" y1="0%" x2="100%" y2="0%">
      <stop offset="0%" style="stop-color:#1a5276;stop-opacity:1" />
      <stop offset="100%" style="stop-color:#2980b9;stop-opacity:1" />
    </linearGradient>
  </defs>
  <g>
    <path d="M20,5 C11.7,5 5,11.7 5,20 C5,28.3 11.7,35 20,35 C28.3,35 35,28.3 35,20 C35,11.7 28.3,5 20,5 Z M20,30 C14.5,30 10,25.5 10,20 C10,14.5 14.5,10 20,10 C25.5,10 30,14.5 30,20 C30,25.5 25.5,30 20,30 Z" fill="url(#logo-gradient-small)"/>
    <path d="M20,13 L20,20 L26,23" stroke="#1a5276" stroke-width="2" fill="none" stroke-linecap="round"/>
    <circle cx="20" cy="20" r="2" fill="#1a5276"/>
  </g>
</svg>