<?xml version="1.0" encoding="UTF-8"?>
<svg width="0" height="0" xmlns="http://www.w3.org/2000/svg">
    <defs>
        <!-- Environmental Engineering Icon -->
        <symbol id="icon-environment" viewBox="0 0 24 24">
            <path
                d="M12,2C6.48,2,2,6.48,2,12s4.48,10,10,10s10-4.48,10-10S17.52,2,12,2z M12,20c-4.41,0-8-3.59-8-8s3.59-8,8-8s8,3.59,8,8S16.41,20,12,20z"
                fill="#1a5276" />
            <path
                d="M12,6c-3.31,0-6,2.69-6,6s2.69,6,6,6s6-2.69,6-6S15.31,6,12,6z M12,16c-2.21,0-4-1.79-4-4s1.79-4,4-4s4,1.79,4,4S14.21,16,12,16z"
                fill="#1a5276" />
            <path
                d="M12,8c-2.21,0-4,1.79-4,4s1.79,4,4,4s4-1.79,4-4S14.21,8,12,8z M12,14c-1.1,0-2-0.9-2-2s0.9-2,2-2s2,0.9,2,2S13.1,14,12,14z"
                fill="#1a5276" />
        </symbol>

        <!-- Bioprocess Engineering Icon -->
        <symbol id="icon-bioprocess" viewBox="0 0 24 24">
            <path
                d="M19,3H5C3.9,3,3,3.9,3,5v14c0,1.1,0.9,2,2,2h14c1.1,0,2-0.9,2-2V5C21,3.9,20.1,3,19,3z M19,19H5V5h14V19z"
                fill="#1a5276" />
            <path d="M7,7h10v2H7V7z M7,11h10v2H7V11z M7,15h7v2H7V15z" fill="#1a5276" />
        </symbol>

        <!-- Analysis & Research Icon -->
        <symbol id="icon-analysis" viewBox="0 0 24 24">
            <path d="M3.5,18.5l6-6l4,4L22,6.92L20.59,5.5l-7.09,8.5l-4-4L2,17.5L3.5,18.5z" fill="#1a5276" />
            <path d="M16,6l2.29,2.29l-4.88,4.88l-4-4L2,16.59L3.41,18l6-6l4,4l6.3-6.29L22,12V6H16z" fill="#1a5276" />
        </symbol>
    </defs>
</svg>