<?xml version="1.0" encoding="UTF-8"?>
<svg width="0" height="0" xmlns="http://www.w3.org/2000/svg">
    <defs>
        <!-- Water Treatment Icon -->
        <symbol id="icon-water-treatment" viewBox="0 0 24 24">
            <path d="M12,2C6.48,2,2,6.48,2,12s4.48,10,10,10s10-4.48,10-10S17.52,2,12,2z" fill="none" stroke="#1a5276"
                stroke-width="1.5" />
            <path d="M12,6c-3.31,0-6,2.69-6,6s2.69,6,6,6s6-2.69,6-6S15.31,6,12,6z" fill="none" stroke="#1a5276"
                stroke-width="1.5" />
            <path d="M12,10c-1.1,0-2,0.9-2,2s0.9,2,2,2s2-0.9,2-2S13.1,10,12,10z" fill="#1a5276" />
            <path d="M8,8l2,2M14,14l2,2M8,14l2-2M14,8l2,2" stroke="#1a5276" stroke-width="1.5" stroke-linecap="round" />
        </symbol>

        <!-- Stormwater Icon -->
        <symbol id="icon-stormwater" viewBox="0 0 24 24">
            <path d="M12,2L4,12h3v8h10v-8h3L12,2z" fill="none" stroke="#1a5276" stroke-width="1.5" />
            <path d="M12,6v4M12,14v4" stroke="#1a5276" stroke-width="1.5" stroke-linecap="round" />
            <path d="M8,10h8M8,18h8" stroke="#1a5276" stroke-width="1.5" stroke-linecap="round" />
            <path d="M12,2v4M12,14v4" stroke="#1a5276" stroke-width="1.5" stroke-linecap="round" />
        </symbol>

        <!-- Bioprocess Icon -->
        <symbol id="icon-bioprocess" viewBox="0 0 24 24">
            <path d="M19,3H5C3.9,3,3,3.9,3,5v14c0,1.1,0.9,2,2,2h14c1.1,0,2-0.9,2-2V5C21,3.9,20.1,3,19,3z" fill="none"
                stroke="#1a5276" stroke-width="1.5" />
            <path d="M7,7h10v2H7V7z M7,11h10v2H7V11z M7,15h7v2H7V15z" fill="#1a5276" />
            <path d="M3,12h18M12,3v18" stroke="#1a5276" stroke-width="1.5" stroke-dasharray="2,2" />
        </symbol>

        <!-- Environmental Icon -->
        <symbol id="icon-environmental" viewBox="0 0 24 24">
            <path d="M12,2C6.48,2,2,6.48,2,12s4.48,10,10,10s10-4.48,10-10S17.52,2,12,2z" fill="none" stroke="#1a5276"
                stroke-width="1.5" />
            <path d="M12,6c-3.31,0-6,2.69-6,6s2.69,6,6,6s6-2.69,6-6S15.31,6,12,6z" fill="none" stroke="#1a5276"
                stroke-width="1.5" />
            <path d="M12,8c-2.21,0-4,1.79-4,4s1.79,4,4,4s4-1.79,4-4S14.21,8,12,8z" fill="#1a5276" />
            <path d="M12,2v4M12,18v4M2,12h4M18,12h4" stroke="#1a5276" stroke-width="1.5" stroke-linecap="round" />
        </symbol>

        <!-- Analysis Icon -->
        <symbol id="icon-analysis" viewBox="0 0 24 24">
            <path d="M3.5,18.5l6-6l4,4L22,6.92L20.59,5.5l-7.09,8.5l-4-4L2,17.5L3.5,18.5z" fill="#1a5276" />
            <path d="M16,6l2.29,2.29l-4.88,4.88l-4-4L2,16.59L3.41,18l6-6l4,4l6.3-6.29L22,12V6H16z" fill="none"
                stroke="#1a5276" stroke-width="1.5" />
            <path d="M3,12h18M12,3v18" stroke="#1a5276" stroke-width="1.5" stroke-dasharray="2,2" />
        </symbol>

        <!-- Industry Icon -->
        <symbol id="icon-industry" viewBox="0 0 24 24">
            <path d="M19,3H5C3.9,3,3,3.9,3,5v14c0,1.1,0.9,2,2,2h14c1.1,0,2-0.9,2-2V5C21,3.9,20.1,3,19,3z" fill="none"
                stroke="#1a5276" stroke-width="1.5" />
            <path d="M7,7h10v2H7V7z M7,11h10v2H7V11z M7,15h7v2H7V15z" fill="#1a5276" />
            <path d="M3,12h18M12,3v18" stroke="#1a5276" stroke-width="1.5" stroke-dasharray="2,2" />
            <path d="M7,3v18M17,3v18" stroke="#1a5276" stroke-width="1.5" stroke-dasharray="2,2" />
        </symbol>

        <!-- Leaf Icon -->
        <symbol id="icon-leaf" viewBox="0 0 24 24">
            <path d="M12,2C6.48,2,2,6.48,2,12s4.48,10,10,10s10-4.48,10-10S17.52,2,12,2z" fill="none" stroke="#1a5276"
                stroke-width="1.5" />
            <path d="M12,6c-3.31,0-6,2.69-6,6s2.69,6,6,6s6-2.69,6-6S15.31,6,12,6z" fill="none" stroke="#1a5276"
                stroke-width="1.5" />
            <path d="M12,8c-2.21,0-4,1.79-4,4s1.79,4,4,4s4-1.79,4-4S14.21,8,12,8z" fill="#1a5276" />
            <path d="M12,2v4M12,18v4M2,12h4M18,12h4" stroke="#1a5276" stroke-width="1.5" stroke-linecap="round" />
        </symbol>
    </defs>
</svg>