<?xml version="1.0" encoding="UTF-8"?>
<svg width="400" height="120" viewBox="0 0 400 120" fill="none" xmlns="http://www.w3.org/2000/svg">
  <!-- Background Circle -->
  <circle cx="60" cy="60" r="55" fill="url(#gradient1)" stroke="url(#gradient2)" stroke-width="2"/>
  
  <!-- Water Drops -->
  <path d="M35 45C35 38 40 32 46 32C52 32 57 38 57 45C57 52 52 58 46 58C40 58 35 52 35 45Z" fill="url(#waterGradient)"/>
  <path d="M63 45C63 38 68 32 74 32C80 32 85 38 85 45C85 52 80 58 74 58C68 58 63 52 63 45Z" fill="url(#waterGradient)"/>
  
  <!-- Gear/Process Elements -->
  <circle cx="46" cy="75" r="8" fill="none" stroke="url(#techGradient)" stroke-width="2"/>
  <path d="M46 67L46 83M38 75L54 75M41.2 68.2L50.8 81.8M50.8 68.2L41.2 81.8" stroke="url(#techGradient)" stroke-width="1.5"/>
  
  <circle cx="74" cy="75" r="8" fill="none" stroke="url(#techGradient)" stroke-width="2"/>
  <path d="M74 67L74 83M66 75L82 75M69.2 68.2L78.8 81.8M78.8 68.2L69.2 81.8" stroke="url(#techGradient)" stroke-width="1.5"/>
  
  <!-- Wave Elements -->
  <path d="M25 88C30 84 35 92 40 88C45 84 50 92 55 88" stroke="url(#waveGradient)" stroke-width="2" fill="none"/>
  <path d="M65 88C70 84 75 92 80 88C85 84 90 92 95 88" stroke="url(#waveGradient)" stroke-width="2" fill="none"/>
  
  <!-- Company Name -->
  <text x="135" y="35" font-family="Arial, sans-serif" font-size="24" font-weight="bold" fill="url(#textGradient1)">AquaTech</text>
  <text x="135" y="55" font-family="Arial, sans-serif" font-size="20" font-weight="600" fill="url(#textGradient2)">Solutions</text>
  <text x="135" y="75" font-family="Arial, sans-serif" font-size="16" font-weight="500" fill="#059669">New Zealand</text>
  
  <!-- Tagline -->
  <text x="135" y="95" font-family="Arial, sans-serif" font-size="12" font-style="italic" fill="#64748b">Local Water Done Well</text>
  
  <!-- Gradients -->
  <defs>
    <linearGradient id="gradient1" x1="0%" y1="0%" x2="100%" y2="100%">
      <stop offset="0%" stop-color="#14b8a6"/>
      <stop offset="100%" stop-color="#0891b2"/>
    </linearGradient>
    <linearGradient id="gradient2" x1="0%" y1="0%" x2="100%" y2="100%">
      <stop offset="0%" stop-color="#0891b2"/>
      <stop offset="100%" stop-color="#0369a1"/>
    </linearGradient>
    <linearGradient id="waterGradient" x1="0%" y1="0%" x2="100%" y2="100%">
      <stop offset="0%" stop-color="#bae6fd"/>
      <stop offset="100%" stop-color="#0ea5e9"/>
    </linearGradient>
    <linearGradient id="techGradient" x1="0%" y1="0%" x2="100%" y2="100%">
      <stop offset="0%" stop-color="#a855f7"/>
      <stop offset="100%" stop-color="#7c3aed"/>
    </linearGradient>
    <linearGradient id="waveGradient" x1="0%" y1="0%" x2="100%" y2="0%">
      <stop offset="0%" stop-color="#059669"/>
      <stop offset="50%" stop-color="#14b8a6"/>
      <stop offset="100%" stop-color="#059669"/>
    </linearGradient>
    <linearGradient id="textGradient1" x1="0%" y1="0%" x2="100%" y2="0%">
      <stop offset="0%" stop-color="#0891b2"/>
      <stop offset="100%" stop-color="#0369a1"/>
    </linearGradient>
    <linearGradient id="textGradient2" x1="0%" y1="0%" x2="100%" y2="0%">
      <stop offset="0%" stop-color="#14b8a6"/>
      <stop offset="100%" stop-color="#059669"/>
    </linearGradient>
  </defs>
</svg>