<svg width="80" height="80" xmlns="http://www.w3.org/2000/svg">
  <circle cx="40" cy="40" r="38" fill="#e1f5fe" stroke="#1a5276" stroke-width="2"/>
  
  <!-- Bioprocess Engineering Icon -->
  <g transform="translate(20, 15)">
    <!-- Lab Flask -->
    <path d="M15,0 H25 V5 C25,5 40,35 40,45 C40,50 30,55 20,55 C10,55 0,50 0,45 C0,35 15,5 15,5 Z" 
          fill="white" stroke="#1a5276" stroke-width="1.5"/>
    
    <!-- Liquid in Flask -->
    <path d="M15,20 C15,20 5,35 5,45 C5,48 10,50 20,50 C30,50 35,48 35,45 C35,35 25,20 25,20 Z" 
          fill="#2980b9" fill-opacity="0.6"/>
    
    <!-- Bubbles in Flask -->
    <circle cx="15" cy="30" r="2" fill="white" fill-opacity="0.8"/>
    <circle cx="25" cy="35" r="3" fill="white" fill-opacity="0.8"/>
    <circle cx="20" cy="40" r="2.5" fill="white" fill-opacity="0.8"/>
    <circle cx="12" cy="38" r="1.5" fill="white" fill-opacity="0.8"/>
    <circle cx="28" cy="42" r="1" fill="white" fill-opacity="0.8"/>
    
    <!-- DNA Helix for Bioprocess -->
    <path d="M30,10 C35,15 25,20 30,25 C35,30 25,35 30,40" 
          fill="none" stroke="#27ae60" stroke-width="1.5" stroke-linecap="round"/>
    <path d="M40,10 C35,15 45,20 40,25 C35,30 45,35 40,40" 
          fill="none" stroke="#27ae60" stroke-width="1.5" stroke-linecap="round"/>
    <path d="M30,12.5 H40 M30,17.5 H40 M30,22.5 H40 M30,27.5 H40 M30,32.5 H40 M30,37.5 H40" 
          stroke="#27ae60" stroke-width="1" stroke-linecap="round"/>
  </g>
</svg>