<svg width="100" height="100" viewBox="0 0 100 100" xmlns="http://www.w3.org/2000/svg">
  <path d="M0 0h100v100H0z" fill="none"/>
  <circle cx="10" cy="10" r="2" fill="#fff"/>
  <circle cx="30" cy="10" r="2" fill="#fff"/>
  <circle cx="50" cy="10" r="2" fill="#fff"/>
  <circle cx="70" cy="10" r="2" fill="#fff"/>
  <circle cx="90" cy="10" r="2" fill="#fff"/>
  <circle cx="10" cy="30" r="2" fill="#fff"/>
  <circle cx="30" cy="30" r="2" fill="#fff"/>
  <circle cx="50" cy="30" r="2" fill="#fff"/>
  <circle cx="70" cy="30" r="2" fill="#fff"/>
  <circle cx="90" cy="30" r="2" fill="#fff"/>
  <circle cx="10" cy="50" r="2" fill="#fff"/>
  <circle cx="30" cy="50" r="2" fill="#fff"/>
  <circle cx="50" cy="50" r="2" fill="#fff"/>
  <circle cx="70" cy="50" r="2" fill="#fff"/>
  <circle cx="90" cy="50" r="2" fill="#fff"/>
  <circle cx="10" cy="70" r="2" fill="#fff"/>
  <circle cx="30" cy="70" r="2" fill="#fff"/>
  <circle cx="50" cy="70" r="2" fill="#fff"/>
  <circle cx="70" cy="70" r="2" fill="#fff"/>
  <circle cx="90" cy="70" r="2" fill="#fff"/>
  <circle cx="10" cy="90" r="2" fill="#fff"/>
  <circle cx="30" cy="90" r="2" fill="#fff"/>
  <circle cx="50" cy="90" r="2" fill="#fff"/>
  <circle cx="70" cy="90" r="2" fill="#fff"/>
  <circle cx="90" cy="90" r="2" fill="#fff"/>
</svg>