<svg width="100" height="100" viewBox="0 0 100 100" xmlns="http://www.w3.org/2000/svg">
  <path d="M0 0h100v100H0z" fill="none"/>
  <path d="M20 20c10 0 10 10 20 10s10-10 20-10 10 10 20 10" stroke="#fff" stroke-width="1" fill="none"/>
  <path d="M20 40c10 0 10 10 20 10s10-10 20-10 10 10 20 10" stroke="#fff" stroke-width="1" fill="none"/>
  <path d="M20 60c10 0 10 10 20 10s10-10 20-10 10 10 20 10" stroke="#fff" stroke-width="1" fill="none"/>
  <path d="M20 80c10 0 10 10 20 10s10-10 20-10 10 10 20 10" stroke="#fff" stroke-width="1" fill="none"/>
  <path d="M0 10c10 0 10 10 20 10s10-10 20-10 10 10 20 10 10-10 20-10" stroke="#fff" stroke-width="1" fill="none"/>
  <path d="M0 30c10 0 10 10 20 10s10-10 20-10 10 10 20 10 10-10 20-10" stroke="#fff" stroke-width="1" fill="none"/>
  <path d="M0 50c10 0 10 10 20 10s10-10 20-10 10 10 20 10 10-10 20-10" stroke="#fff" stroke-width="1" fill="none"/>
  <path d="M0 70c10 0 10 10 20 10s10-10 20-10 10 10 20 10 10-10 20-10" stroke="#fff" stroke-width="1" fill="none"/>
  <path d="M0 90c10 0 10 10 20 10s10-10 20-10 10 10 20 10 10-10 20-10" stroke="#fff" stroke-width="1" fill="none"/>
</svg>