<svg width="36" height="36" viewBox="0 0 36 36" fill="none" xmlns="http://www.w3.org/2000/svg">
  <path d="M18 3C9.716 3 3 9.716 3 18C3 26.284 9.716 33 18 33C26.284 33 33 26.284 33 18C33 9.716 26.284 3 18 3Z" fill="#1a5276"/>
  <path d="M18 7C12.48 7 8 11.48 8 17C8 22.52 12.48 27 18 27C23.52 27 28 22.52 28 17C28 11.48 23.52 7 18 7Z" fill="#2980b9"/>
  <path d="M22 13.5C22 15.985 20.206 18 18 18C15.794 18 14 15.985 14 13.5C14 11.015 15.794 9 18 9C20.206 9 22 11.015 22 13.5Z" fill="#1a5276"/>
  <path d="M12 20L24 20L18 29L12 20Z" fill="#27ae60"/>
  <path d="M14 17.5L22 17.5L18 24L14 17.5Z" fill="#2980b9"/>
</svg>